<svg width="25" height="24" viewBox="0 0 25 24" fill="none" xmlns="http://www.w3.org/2000/svg">
<path fill-rule="evenodd" clip-rule="evenodd" d="M3.37868 3.87868C2.5 4.75736 2.5 6.17157 2.5 9V15C2.5 17.8284 2.5 19.2426 3.37868 20.1213C4.25736 21 5.67157 21 8.5 21H16.5C19.3284 21 20.7426 21 21.6213 20.1213C22.5 19.2426 22.5 17.8284 22.5 15V9C22.5 6.17157 22.5 4.75736 21.6213 3.87868C20.7426 3 19.3284 3 16.5 3H8.5C5.67157 3 4.25736 3 3.37868 3.87868ZM16.5 8C17.0523 8 17.5 8.44772 17.5 9V17C17.5 17.5523 17.0523 18 16.5 18C15.9477 18 15.5 17.5523 15.5 17V9C15.5 8.44772 15.9477 8 16.5 8ZM9.5 11C9.5 10.4477 9.05228 10 8.5 10C7.94772 10 7.5 10.4477 7.5 11V17C7.5 17.5523 7.94772 18 8.5 18C9.05229 18 9.5 17.5523 9.5 17V11ZM13.5 13C13.5 12.4477 13.0523 12 12.5 12C11.9477 12 11.5 12.4477 11.5 13V17C11.5 17.5523 11.9477 18 12.5 18C13.0523 18 13.5 17.5523 13.5 17V13Z" fill="white"/>
</svg>
