<svg width="16" height="16" viewBox="0 0 16 16" fill="none" xmlns="http://www.w3.org/2000/svg">
<path d="M6.43439 0C6.34952 0 6.26813 0.0337142 6.20812 0.0937258C6.14811 0.153737 6.11439 0.235131 6.11439 0.32V0.96C6.11439 1.04487 6.14811 1.12626 6.20812 1.18627C6.26813 1.24629 6.34952 1.28 6.43439 1.28H6.91439V2.1272C3.45263 2.5256 0.754395 5.47344 0.754395 9.04C0.754395 12.8773 3.87711 16 7.71439 16C11.5517 16 14.6744 12.8773 14.6744 9.04C14.6755 7.72661 14.3026 6.44006 13.5992 5.33088L14.2773 4.78192L14.5794 5.15504C14.6058 5.18772 14.6384 5.21486 14.6753 5.23494C14.7122 5.25501 14.7528 5.26761 14.7946 5.27202C14.8363 5.27644 14.8786 5.27257 14.9189 5.26065C14.9592 5.24874 14.9968 5.229 15.0294 5.20256L15.527 4.79968C15.5929 4.74624 15.6349 4.66882 15.6437 4.58446C15.6525 4.50009 15.6275 4.41567 15.5741 4.34976L13.9632 2.36C13.9368 2.32732 13.9042 2.30018 13.8672 2.2801C13.8303 2.26003 13.7898 2.24743 13.748 2.24302C13.7062 2.2386 13.6639 2.24247 13.6236 2.25438C13.5833 2.2663 13.5458 2.28604 13.5131 2.31248L13.0155 2.71536C12.9496 2.7688 12.9077 2.84622 12.8989 2.93058C12.89 3.01495 12.9151 3.09937 12.9685 3.16528L13.2707 3.5384L12.5955 4.08464C11.5176 3.02256 10.0957 2.3096 8.51439 2.12752V1.28H8.99439C9.07926 1.28 9.16066 1.24629 9.22067 1.18627C9.28068 1.12626 9.31439 1.04487 9.31439 0.96V0.32C9.31439 0.235131 9.28068 0.153737 9.22067 0.0937258C9.16066 0.0337142 9.07926 0 8.99439 0L6.43439 0ZM7.71439 3.2C10.9464 3.2 13.5544 5.808 13.5544 9.04C13.5544 12.272 10.9464 14.88 7.71439 14.88C4.48239 14.88 1.87439 12.272 1.87439 9.04C1.87439 5.808 4.48239 3.2 7.71439 3.2ZM7.71471 4.39088L7.71439 9.04L11.4318 11.8315C11.9504 11.141 12.2663 10.3196 12.3443 9.45957C12.4222 8.59953 12.2591 7.73477 11.8731 6.96224C11.4872 6.18974 10.8937 5.54 10.1592 5.08585C9.42472 4.63171 8.57826 4.39112 7.71471 4.39104V4.39088Z" fill="#B8B8B8"/>
</svg>
